# xmcd
#
# Track frame offsets:
#	150
#	22063
#	43991
#	56310
#	75966
#	87007
#	108506
#	129034
#	143984
#	166686
#	183069
#	204221
#	224690
#	240585
#
# Disc length: 3403 seconds
#
# Revision: 1
# Processed by: cddbd v1.5.2PL0 Copyright (c) Steve Scherf et al.
# Submitted via: audiograbber 1.83.01
#
DISCID=ad0d490e
DTITLE=Boystown - To all our friends
DYEAR=1900
DGENRE=pop
TTITLE0=Boystown - 1. Flashbacks
TTITLE1=Boystown - 2. Wherever i go
TTITLE2=Boystown - 3. Times
TTITLE3=Boystown - 4. Life's a party
TTITLE4=Boystown - 5. Gary doesn't play
TTITLE5=Boystown - 6. Mondays
TTITLE6=Boystown - 7. Roads
TTITLE7=Boystown - 8. Burn my Candle
TTITLE8=Boystown - 9. Meltdown
TTITLE9=Boystown - 10. Quicksand
TTITLE10=Boystown - 11. She won't leave me
TTITLE11=Boystown - 12. Fight for your life
TTITLE12=Boystown - 13. Balder
TTITLE13=Boystown - 14. O.D.
EXTD=
EXTT0=
EXTT1=
EXTT2=
EXTT3=
EXTT4=
EXTT5=
EXTT6=
EXTT7=
EXTT8=
EXTT9=
EXTT10=
EXTT11=
EXTT12=
EXTT13=
PLAYORDER=
